<svg id="Ebene_1" data-name="Ebene 1" xmlns="http://www.w3.org/2000/svg" viewBox="0 0 2847.64567 2847.64567"><defs><style>.cls-1{fill:#e0ddaa;}.cls-1,.cls-2,.cls-3,.cls-4{stroke:#000;stroke-miterlimit:10;}.cls-1,.cls-2{stroke-width:13px;}.cls-2{fill:#203239;}.cls-3{fill:#eeedde;}.cls-3,.cls-4{stroke-width:3px;}.cls-4{fill:none;}</style></defs><rect class="cls-1" x="6.50012" y="6.50012" width="2834.64544" height="2834.64544" rx="57.8125"/><path class="cls-2" d="M2215.17345,1019.63666c0-440.64056-357.2096-797.85043-797.85051-797.85047-440.64056,0-797.85061,357.20978-797.85065,797.85034a794.09562,794.09562,0,0,0,140.50255,452.20485l655.78992,1141.0181,691.14992-1191.7092h-.03551A794.10623,794.10623,0,0,0,2215.17345,1019.63666Z" transform="translate(6.5 6.5)"/><path class="cls-3" d="M1685.33938,514.35467l0,126.321-340.18981,0a58.07153,58.07153,0,0,0-36.26945,12.50641q-16.26927,12.51564-28.14157,33.14356-11.9,20.63643-18.75962,48.15239a236.052,236.052,0,0,0-6.87953,57.53149l0,459.00643a244.11262,244.11262,0,0,0,6.2532,55.65539,182.37987,182.37987,0,0,0,18.13473,48.15239q11.87229,21.28193,28.76645,33.76846Q1325.13868,1401.11,1345.1495,1401.1l176.34811,0,0-321.43018-167.59249,0,0-125.06982,346.443,0,0,570.31862-436.49459,0q-43.79306,0-79.41843-21.26205-35.64456-21.2521-60.65881-58.15782-25.03341-36.87588-38.77186-86.92285-13.77679-50.00932-13.75762-107.56l0-459.00642q0-58.77348,14.38253-109.4361,14.36476-50.65268,39.39678-88.17405,25.00572-37.52137,60.65881-58.7827,35.64669-21.25209,78.16864-21.262Z" transform="translate(6.5 6.5)"/><path class="cls-4" d="M1685.33938,514.35467l0,126.321-340.18981,0a58.07153,58.07153,0,0,0-36.26945,12.50641q-16.26927,12.51564-28.14157,33.14356-11.9,20.63643-18.75962,48.15239a236.052,236.052,0,0,0-6.87953,57.53149l0,459.00643a244.11262,244.11262,0,0,0,6.2532,55.65539,182.37987,182.37987,0,0,0,18.13473,48.15239q11.87229,21.28193,28.76645,33.76846Q1325.13868,1401.11,1345.1495,1401.1l176.34811,0,0-321.43018-167.59249,0,0-125.06982,346.443,0,0,570.31862-436.49459,0q-43.79306,0-79.41843-21.26205-35.64456-21.2521-60.65881-58.15782-25.03341-36.87588-38.77186-86.92285-13.77679-50.00932-13.75762-107.56l0-459.00642q0-58.77348,14.38253-109.4361,14.36476-50.65268,39.39678-88.17405,25.00572-37.52137,60.65881-58.7827,35.64669-21.25209,78.16864-21.262Z" transform="translate(6.5 6.5)"/></svg>