<svg id="Ebene_1" data-name="Ebene 1" xmlns="http://www.w3.org/2000/svg" viewBox="0 0 2720.90364 2044.76146"><defs><style>.cls-1{fill:#e0ddaa;}.cls-1,.cls-2,.cls-4,.cls-5{stroke:#000;stroke-miterlimit:10;}.cls-1,.cls-2{stroke-width:13px;}.cls-2{fill:#203239;}.cls-3,.cls-5{fill:#eeedde;}.cls-4{fill:none;}.cls-4,.cls-5{stroke-width:3px;}</style></defs><rect class="cls-1" x="1098.76478" y="760.69369" width="1502.4379" height="1502.4379" rx="57.8125" transform="translate(-413.39656 200.65377) rotate(-16.70558)"/><path class="cls-2" d="M2194.42717,1188.46547c-67.13521-223.69413-302.89894-350.61028-526.59325-283.475-223.69414,67.1352-350.61035,302.89905-283.47515,526.59318a420.892,420.892,0,0,0,140.2242,208.1581l506.75965,479.33047,169.30017-710.28153-.018.00541A420.89773,420.89773,0,0,0,2194.42717,1188.46547Z" transform="translate(-56.87101 -394.9421)"/><path class="cls-3" d="M1848.46948,1012.68028l19.246,64.12772-172.69964,51.83071a30.77946,30.77946,0,0,0-16.507,11.87491,58.68774,58.68774,0,0,0-9.23656,21.11315,98.73888,98.73888,0,0,0-2.187,27.30307,125.11364,125.11364,0,0,0,5.273,30.2544l69.93339,233.01768a129.38628,129.38628,0,0,0,11.654,27.30111,96.66616,96.66616,0,0,0,16.54262,21.68191,55.33809,55.33809,0,0,0,19.74839,12.76,32.11928,32.11928,0,0,0,20.63606.72831l89.5243-26.86808L1851.42455,1324.629l-85.07945,25.53409-19.05541-63.49253,175.87412-52.78344,86.89272,289.52607-221.58941,66.50354a80.51977,80.51977,0,0,1-43.55674,1.30623,101.47653,101.47653,0,0,1-39.65467-20.28234q-18.32673-14.90623-32.92621-38.21975a213.947,213.947,0,0,1-23.3718-52.50746l-69.93339-233.01769a211.49328,211.49328,0,0,1-9.37211-57.74727q-.425-27.90276,6.566-50.76457a100.39293,100.39293,0,0,1,21.83782-39.0833,79.41349,79.41349,0,0,1,36.44339-22.70345Z" transform="translate(-56.87101 -394.9421)"/><path class="cls-3" d="M1848.46948,1012.68028l19.246,64.12772-172.69964,51.83071a30.77946,30.77946,0,0,0-16.507,11.87491,58.68774,58.68774,0,0,0-9.23656,21.11315,98.73888,98.73888,0,0,0-2.187,27.30307,125.11364,125.11364,0,0,0,5.273,30.2544l69.93339,233.01768a129.38628,129.38628,0,0,0,11.654,27.30111,96.66616,96.66616,0,0,0,16.54262,21.68191,55.33809,55.33809,0,0,0,19.74839,12.76,32.11928,32.11928,0,0,0,20.63606.72831l89.5243-26.86808L1851.42455,1324.629l-85.07945,25.53409-19.05541-63.49253,175.87412-52.78344,86.89272,289.52607-221.58941,66.50354a80.51977,80.51977,0,0,1-43.55674,1.30623,101.47653,101.47653,0,0,1-39.65467-20.28234q-18.32673-14.90623-32.92621-38.21975a213.947,213.947,0,0,1-23.3718-52.50746l-69.93339-233.01769a211.49328,211.49328,0,0,1-9.37211-57.74727q-.425-27.90276,6.566-50.76457a100.39293,100.39293,0,0,1,21.83782-39.0833,79.41349,79.41349,0,0,1,36.44339-22.70345Z" transform="translate(-56.87101 -394.9421)"/><path class="cls-4" d="M1848.46948,1012.68028l19.246,64.12772-172.69964,51.83071a30.77946,30.77946,0,0,0-16.507,11.87491,58.68774,58.68774,0,0,0-9.23656,21.11315,98.73888,98.73888,0,0,0-2.187,27.30307,125.11364,125.11364,0,0,0,5.273,30.2544l69.93339,233.01768a129.38628,129.38628,0,0,0,11.654,27.30111,96.66616,96.66616,0,0,0,16.54262,21.68191,55.33809,55.33809,0,0,0,19.74839,12.76,32.11928,32.11928,0,0,0,20.63606.72831l89.5243-26.86808L1851.42455,1324.629l-85.07945,25.53409-19.05541-63.49253,175.87412-52.78344,86.89272,289.52607-221.58941,66.50354a80.51977,80.51977,0,0,1-43.55674,1.30623,101.47653,101.47653,0,0,1-39.65467-20.28234q-18.32673-14.90623-32.92621-38.21975a213.947,213.947,0,0,1-23.3718-52.50746l-69.93339-233.01769a211.49328,211.49328,0,0,1-9.37211-57.74727q-.425-27.90276,6.566-50.76457a100.39293,100.39293,0,0,1,21.83782-39.0833,79.41349,79.41349,0,0,1,36.44339-22.70345Z" transform="translate(-56.87101 -394.9421)"/><rect class="cls-1" x="192.79615" y="530.86724" width="1502.4379" height="1502.4379" rx="57.8125" transform="translate(231.40169 -563.6872) rotate(12.04278)"/><path class="cls-2" d="M1401.569,1164.17171c48.72858-228.41131-96.933-453.07762-325.34448-501.80625-228.41131-48.72859-453.07773,96.93306-501.80632,325.34437a420.892,420.892,0,0,0,22.82377,249.94338l213.75622,663.98142L1301.05,1360.32923l-.0184-.00393A420.89765,420.89765,0,0,0,1401.569,1164.17171Z" transform="translate(-56.87101 -394.9421)"/><path class="cls-5" d="M1182.8001,843.66064l-13.96931,65.48L992.48933,871.5205a30.77949,30.77949,0,0,0-20.18374,2.472,58.68776,58.68776,0,0,0-18.25272,14.0683,98.73891,98.73891,0,0,0-15.04925,22.88583,125.11384,125.11384,0,0,0-9.92824,29.06136l-50.75959,237.93147a129.38546,129.38546,0,0,0-2.91327,29.54116,96.666,96.666,0,0,0,4.07538,26.96581,55.33788,55.33788,0,0,0,11.17712,20.68544,32.11929,32.11929,0,0,0,17.74218,10.56374l91.41215,19.50159L1035.355,1118.58l-86.87357-18.53335,13.83095-64.83144,179.58288,38.31168-63.06913,295.63148-226.2622-48.2701a80.51968,80.51968,0,0,1-38.81622-19.804,101.47658,101.47658,0,0,1-25.01179-36.8548q-8.89842-21.88339-10.48543-49.34512a213.94662,213.94662,0,0,1,4.76318-57.2764l50.75959-237.93148a211.49311,211.49311,0,0,1,19.55742-55.137q13.04763-24.66789,30.17259-41.34935A100.393,100.393,0,0,1,921.447,799.42739a79.4134,79.4134,0,0,1,42.87093-2.37709Z" transform="translate(-56.87101 -394.9421)"/><path class="cls-4" d="M1182.8001,843.66064l-13.96931,65.48L992.48933,871.5205a30.77949,30.77949,0,0,0-20.18374,2.472,58.68776,58.68776,0,0,0-18.25272,14.0683,98.73891,98.73891,0,0,0-15.04925,22.88583,125.11384,125.11384,0,0,0-9.92824,29.06136l-50.75959,237.93147a129.38546,129.38546,0,0,0-2.91327,29.54116,96.666,96.666,0,0,0,4.07538,26.96581,55.33788,55.33788,0,0,0,11.17712,20.68544,32.11929,32.11929,0,0,0,17.74218,10.56374l91.41215,19.50159L1035.355,1118.58l-86.87357-18.53335,13.83095-64.83144,179.58288,38.31168-63.06913,295.63148-226.2622-48.2701a80.51968,80.51968,0,0,1-38.81622-19.804,101.47658,101.47658,0,0,1-25.01179-36.8548q-8.89842-21.88339-10.48543-49.34512a213.94662,213.94662,0,0,1,4.76318-57.2764l50.75959-237.93148a211.49311,211.49311,0,0,1,19.55742-55.137q13.04763-24.66789,30.17259-41.34935A100.393,100.393,0,0,1,921.447,799.42739a79.4134,79.4134,0,0,1,42.87093-2.37709Z" transform="translate(-56.87101 -394.9421)"/></svg>